<?xml version="1.0" encoding="utf-8"?>
<svg viewBox="0 0 100 100" version="1.1" id="el_q9TJh6D9M" xmlns="http://www.w3.org/2000/svg" xmlns:bx="https://boxy-svg.com">
  <defs>
    <filter id="drop-shadow-filter-0" x="-500%" y="-500%" width="1000%" height="1000%" bx:preset="drop-shadow 1 1 1 0 0.33 rgba(0,0,0,0.3)">
      <feGaussianBlur in="SourceAlpha" stdDeviation="0"/>
      <feOffset dx="1" dy="1"/>
      <feComponentTransfer result="offsetblur">
        <feFuncA id="spread-ctrl" type="linear" slope="0.66"/>
      </feComponentTransfer>
      <feFlood flood-color="rgba(0,0,0,0.3)"/>
      <feComposite in2="offsetblur" operator="in"/>
      <feMerge>
        <feMergeNode/>
        <feMergeNode in="SourceGraphic"/>
      </feMerge>
    </filter>
  </defs>
  <style>@-webkit-keyframes el_R9UW4-P7ah_cFTtL09b-_Animation{0%{-webkit-transform: translate(50.609373807907104px,
    50.12313608825207px) rotate(0deg) translate(-50.609373807907104px, -50.12313608825207px);transform:
    translate(50.609373807907104px, 50.12313608825207px) rotate(0deg) translate(-50.609373807907104px,
    -50.12313608825207px);}100%{-webkit-transform: translate(50.609373807907104px, 50.12313608825207px) rotate(360deg)
    translate(-50.609373807907104px, -50.12313608825207px);transform: translate(50.609373807907104px,
    50.12313608825207px) rotate(360deg) translate(-50.609373807907104px, -50.12313608825207px);}}@keyframes
    el_R9UW4-P7ah_cFTtL09b-_Animation{0%{-webkit-transform: translate(50.609373807907104px, 50.12313608825207px)
    rotate(0deg) translate(-50.609373807907104px, -50.12313608825207px);transform: translate(50.609373807907104px,
    50.12313608825207px) rotate(0deg) translate(-50.609373807907104px, -50.12313608825207px);}100%{-webkit-transform:
    translate(50.609373807907104px, 50.12313608825207px) rotate(360deg) translate(-50.609373807907104px,
    -50.12313608825207px);transform: translate(50.609373807907104px, 50.12313608825207px) rotate(360deg)
    translate(-50.609373807907104px, -50.12313608825207px);}}#el_q9TJh6D9M *{-webkit-animation-duration:
    3s;animation-duration: 3s;-webkit-animation-iteration-count: infinite;animation-iteration-count:
    infinite;-webkit-animation-timing-function: cubic-bezier(0, 0, 1, 1);animation-timing-function: cubic-bezier(0, 0,
    1, 1);}#el_S-2d9yQa5L{stroke: none;stroke-width: 1;fill: none;}#el_R9UW4-P7ah{-webkit-transform: translate(12px,
    6px);transform: translate(12px, 6px);fill: #BCBCBC;}#el_xmvLW_YrWI{-webkit-transform: translate(28px,
    39px);transform: translate(28px, 39px);}#el_nq-cSg8kZ_{fill: #7942A8;}#el_8sF3o8gajn{fill:
    #B72779;}#el_VCHGuqeFrW{fill: #EE4037;}#el_kL3ZG-zAr2{fill:
    #F59121;}#el_R9UW4-P7ah_cFTtL09b-{-webkit-animation-name: el_R9UW4-P7ah_cFTtL09b-_Animation;animation-name:
    el_R9UW4-P7ah_cFTtL09b-_Animation;-webkit-transform: translate(50.609373807907104px, 50.12313608825207px)
    rotate(0deg) translate(-50.609373807907104px, -50.12313608825207px);transform: translate(50.609373807907104px,
    50.12313608825207px) rotate(0deg) translate(-50.609373807907104px, -50.12313608825207px);}
  </style>
  <title>both in one</title>
  <desc>Created with Sketch.</desc>
  <g id="el_S-2d9yQa5L" fill-rule="evenodd">
    <g id="el_R9UW4-P7ah_cFTtL09b-" data-animator-group="true" data-animator-type="1">
      <g id="el_R9UW4-P7ah" fill-rule="nonzero">
        <path d="M2.04181362,19.9352748 C3.07651646,18.0314216 14.0719587,0.344900949 38.4633538,0.165552455 C64.0550042,-0.0137960379 75.3539593,20.2525837 75.7333503,21.1217341 C77.4164669,25.0053188 76.699073,29.9925865 73.1327972,31.7722754 C69.0422719,33.814089 64.7655001,32.5862416 62.4822559,29.3579688 C57.7709089,22.7358705 57.2535575,14.3892676 45.1337381,9.44338797 C18.8660819,-1.29682757 0.965722656,21.8598221 2.02111956,19.9283768 L2.04181362,19.9352748 Z M75.1884068,68.3317759 C74.1675,70.2218331 63.1720578,87.9221498 38.7806627,88.0808043 C13.1890123,88.2532547 1.87626116,68.0075691 1.50376814,67.1108266 C-0.206940569,63.247936 0.517351423,58.2675663 4.06983119,56.4878774 C8.16725446,54.4460638 12.4509242,55.6808092 14.7272705,58.902184 C19.4455155,65.5380783 19.9559689,73.8708852 32.0826862,78.8236628 C58.3641385,89.5431843 76.2713958,66.4072287 75.1953048,68.338674 L75.1884068,68.3317759 Z" id="el_j8B3lfKba6" style="fill-opacity: 0.63; fill: rgb(148, 148, 148);"/>
      </g>
    </g>
    <g id="el_xmvLW_YrWI"/>
  </g>
  <text style="fill: rgb(0, 51, 102); font-family: Ahem; font-size: 38px; font-weight: 700; paint-order: stroke; stroke-linecap: round; text-transform: uppercase; white-space: pre; filter: url(#drop-shadow-filter-0);" x="24.534" y="61.71"> </text>
  <path style="stroke: rgb(0, 0, 0); paint-order: stroke; fill-rule: evenodd; stroke-opacity: 0; fill: rgb(245, 145, 33);" d="M 25.146 61.773 L 25.105 60.988 L 26.394 60.93 L 27.607 60.561 L 28.362 59.812 L 28.779 58.201 L 28.767 39.572 L 27.791 38.403 L 26.412 37.457 L 25.105 37.228 L 25.105 36.554 L 31.812 36.529 L 32.109 58.155 L 32.469 59.8 L 33.266 60.624 L 34.565 61.038 L 35.583 61.192 L 35.641 61.713 L 33.993 61.726 L 25.085 61.743 L 25.146 61.773 Z"/>
  <path style="stroke: rgb(0, 0, 0); paint-order: stroke; fill-rule: evenodd; stroke-opacity: 0; fill: rgb(238, 64, 55);" d="M 35.026 36.53 L 42.954 46.458 C 42.016 45.52 39.148 51.145 39.496 51.493 L 31.097 41.212 C 30.144 39.942 30.752 36.071 31.105 36.542 L 35.026 36.53 Z"/>
  <path style="stroke: rgb(0, 0, 0); paint-order: stroke; fill-rule: evenodd; stroke-opacity: 0; fill: rgb(183, 39, 121);" d="M 42.977 46.477 L 47.471 52.146 L 47.424 47.535 L 51.039 46.499 L 51.11 61.689 L 48.153 61.712 L 39.519 51.513 C 36.895 48.277 40.293 42.667 42.977 46.477 Z"/>
  <path style="stroke: rgb(0, 0, 0); paint-order: stroke; fill-rule: evenodd; stroke-opacity: 0; fill: rgb(121, 66, 168);" d="M 51.04 46.56 L 50.923 40.095 L 50.964 39.264 L 51.112 38.605 L 51.457 38.123 L 51.972 37.703 L 52.637 37.391 L 53.498 37.22 L 54.405 37.149 L 54.426 36.514 L 43.801 36.491 L 43.801 37.173 L 44.718 37.267 L 45.589 37.479 L 46.281 37.831 L 46.766 38.326 L 47.024 38.773 L 47.33 39.502 L 47.406 40.214 L 47.447 47.548 C 47.37 50.71 51.164 48.463 51.04 46.56 Z"/>
  <path style="stroke: rgb(0, 0, 0); stroke-opacity: 0; fill: rgb(121, 66, 168);" d="M 55.028 61.549 L 55.028 60.869 L 56.709 60.762 L 57.604 60.476 L 58.212 59.939 L 58.462 58.651 L 58.462 54.966 L 58.498 50.852 L 64.294 50.208 L 64.329 56.719 L 64.365 58.651 L 64.544 59.76 L 65.152 60.368 L 66.154 60.798 L 67.764 60.905 L 67.764 61.549 L 55.028 61.549 Z"/>
  <path style="stroke: rgb(0, 0, 0); stroke-opacity: 0; fill: rgb(183, 39, 121);" d="M 58.498 50.852 L 58.462 44.413 L 58.498 40.334 L 58.355 38.581 L 57.926 37.759 L 57.174 37.365 L 56.065 37.115 L 55.028 37.115 L 55.028 36.399 L 58.176 36.435 L 61.396 36.435 L 64.294 40.442 L 64.294 47.31 L 64.258 50.244 C 64.353 52.534 58.593 53.142 58.498 50.852 Z"/>
  <path style="stroke: rgb(0, 0, 0); stroke-opacity: 0; fill: rgb(238, 64, 55);" d="M 64.293 40.478 L 64.329 37.902 L 65.796 37.937 L 66.941 38.116 L 67.978 38.546 L 68.944 39.404 L 69.588 40.549 L 69.839 41.658 L 69.946 43.125 L 69.946 44.27 L 75.956 44.556 L 76.135 43.125 L 75.992 41.622 L 75.419 40.263 L 74.597 39.046 L 73.488 38.081 L 72.021 37.294 L 70.268 36.828 L 68.801 36.506 L 66.798 36.435 L 64.294 36.399 L 61.396 36.435 C 60.502 39.154 63.47 39.345 64.293 40.478 Z"/>
  <path style="stroke: rgb(0, 0, 0); stroke-opacity: 0; fill: rgb(245, 145, 33);" d="M 69.946 44.197 L 69.624 45.844 L 69.23 46.667 L 68.73 47.454 L 68.193 47.99 L 67.442 48.384 L 66.154 48.777 L 65.152 48.741 L 64.293 48.706 L 64.258 50.137 L 66.333 50.172 L 68.443 50.029 L 70.268 49.779 L 71.842 49.278 L 73.058 48.67 L 74.06 47.919 L 74.883 47.024 L 75.419 46.094 L 75.741 45.379 L 75.992 44.52 C 74.18 41.586 69.851 44.912 69.946 44.197 Z"/>
</svg>